<svg width="200" height="183" viewBox="0 0 200 183" fill="none" xmlns="http://www.w3.org/2000/svg">
<path d="M53.439 0H109.163C117.447 0 124.163 6.716 124.163 15V26.534C124.163 34.819 117.447 41.534 109.163 41.534H72.751H42.417V68.783H76.341C82.212 68.783 87.544 72.209 89.984 77.549L100 99.471L146.561 0H185C193.284 0 200 6.716 200 15V182.54H168.968C160.684 182.54 153.968 175.824 153.968 167.54V84.127L123.015 126.169C120.188 130.008 115.703 132.275 110.935 132.275H89.065C84.297 132.275 79.812 130.008 76.985 126.169L65.315 110.317H46.032H42.417V125.661V141.005H124.163V167.54C124.163 175.824 117.447 182.54 109.163 182.54H46.032H0V0H53.439Z" fill="#527CFF"/>
</svg>
